<svg width="21" height="17" viewBox="0 0 21 17" fill="none" xmlns="http://www.w3.org/2000/svg">
<path d="M0 0.8C0 0.358172 0.358172 0 0.8 0H20.2C20.6418 0 21 0.358172 21 0.8C21 1.24183 20.6418 1.6 20.2 1.6H0.799999C0.358171 1.6 0 1.24183 0 0.8Z" fill="white"/>
<path d="M0 8.4C0 7.95817 0.358172 7.6 0.8 7.6H14.2C14.6418 7.6 15 7.95817 15 8.4C15 8.84183 14.6418 9.2 14.2 9.2H0.8C0.358172 9.2 0 8.84183 0 8.4Z" fill="white"/>
<path d="M0 16C0 15.5582 0.358172 15.2 0.8 15.2H20.2C20.6418 15.2 21 15.5582 21 16C21 16.4418 20.6418 16.8 20.2 16.8H0.799999C0.358171 16.8 0 16.4418 0 16Z" fill="white"/>
</svg>
