<svg width="27" height="26" viewBox="0 0 27 26" fill="none" xmlns="http://www.w3.org/2000/svg">
<path d="M16.8028 18.7183C19.7898 18.7183 22.6135 20.0806 24.4727 22.4185L26.13 24.5024C26.4048 24.8482 26.3478 25.3515 26.002 25.6265C25.6562 25.9014 25.153 25.8433 24.878 25.4976L23.2208 23.4146C21.6651 21.4584 19.3021 20.3179 16.8028 20.3179H9.50105C7.00171 20.3179 4.63875 21.4584 3.08308 23.4146L1.42586 25.4976C1.15088 25.8433 0.647639 25.9014 0.301835 25.6265C-0.0439112 25.3515 -0.100936 24.8482 0.173905 24.5024L1.83113 22.4185C3.69035 20.0806 6.51404 18.7183 9.50105 18.7183H16.8028Z" fill="black"/>
<path d="M19.9337 8.30566C19.9336 4.61629 16.9111 1.59964 13.1505 1.59961C9.38985 1.59961 6.36636 4.61627 6.36629 8.30566C6.36629 11.9951 9.3898 15.0117 13.1505 15.0117V16.6113L12.7188 16.6006C8.2892 16.3781 4.76668 12.7494 4.76668 8.30566C4.76675 3.71856 8.52031 0 13.1505 0L13.5821 0.0107422C18.0116 0.233332 21.5342 3.862 21.5343 8.30566L21.5235 8.7334C21.2989 13.1218 17.6359 16.6113 13.1505 16.6113V15.0117C16.9111 15.0117 19.9337 11.9951 19.9337 8.30566Z" fill="black"/>
</svg>
