<svg width="19" height="20" viewBox="0 0 19 20" fill="none" xmlns="http://www.w3.org/2000/svg">
<path d="M16.625 8.86618C16.6247 4.81893 13.2882 1.49999 9.125 1.49999C4.96183 1.49999 1.62525 4.81893 1.625 8.86618C1.625 12.9136 4.96168 16.2333 9.125 16.2333V17.7333L8.66211 17.7216C3.90667 17.4843 0.125 13.6101 0.125 8.86618C0.125251 3.96948 4.15459 0 9.125 0C14.0954 0 18.1248 3.96948 18.125 8.86618C18.125 13.7631 14.0956 17.7333 9.125 17.7333V16.2333C13.2883 16.2333 16.625 12.9136 16.625 8.86618Z" fill="white"/>
<path d="M18.659 19.6237C18.3683 19.9188 17.8935 19.9222 17.5984 19.6316L13.4441 15.5398L14.4969 14.4704L18.6511 18.5632C18.9462 18.8539 18.9496 19.3287 18.659 19.6237Z" fill="white"/>
</svg>
