<svg width="493" height="83" viewBox="0 0 493 83" fill="none" xmlns="http://www.w3.org/2000/svg">
<g clip-path="url(#clip0_4443_25052)">
<path d="M73.9696 3.74023H6.05957V75.5702H73.9696V3.74023Z" fill="white"/>
<path d="M80.18 0H2.58C1.16 0 0 1.16 0 2.58V80.18C0 81.6 1.16 82.76 2.58 82.76H80.18C81.6 82.76 82.76 81.6 82.76 80.18V2.58C82.76 1.16 81.6 0 80.18 0ZM31.52 15.63L40.07 30.44L35.77 37.88L22.93 15.63H31.52ZM31.56 48.76L21.03 30.51V69.08H13.59V15.63H21.03L35.86 41.32L55.65 7.03H64.24L35.85 56.21L31.55 48.77L31.56 48.76ZM68.77 69.08H61.33V30.52L46.51 56.18H37.92L61.32 15.64H68.76V69.09L68.77 69.08Z" fill="#D32B25"/>
<path d="M152.02 69.0799L151.87 40.7499L138.13 63.8099H131.41L117.74 41.5099V69.0799H103.77V15.6299H116.22L135 46.4799L153.33 15.6299H165.78L165.93 69.0799H152.03H152.02Z" fill="white"/>
<path d="M222.88 57.3999V69.0799H179.97V15.6299H221.89V27.3099H194.94V36.3199H218.69V47.6199H194.94V57.3899H222.89L222.88 57.3999Z" fill="white"/>
<path d="M246.779 27.6199H230.359V15.6299H278.239V27.6199H261.899V69.0799H246.779V27.6199Z" fill="white"/>
<path d="M332.079 57.0999V69.0899H284.199V59.6199L311.149 27.6299H284.879V15.6299H330.919V25.0999L303.969 57.0899H332.069L332.079 57.0999Z" fill="white"/>
<path d="M343.6 15.6299H358.72V57.0999H384.22V69.0899H343.6V15.6299Z" fill="white"/>
<path d="M433.399 57.3999V69.0799H390.489V15.6299H432.409V27.3099H405.459V36.3199H429.209V47.6199H405.459V57.3899H433.409L433.399 57.3999Z" fill="white"/>
<path d="M467 54.8799H458.75V69.0799H443.63V15.6299H468.06C472.9 15.6299 477.1 16.4299 480.66 18.0299C484.22 19.6299 486.97 21.9199 488.91 24.8999C490.84 27.8799 491.81 31.3799 491.81 35.3999C491.81 39.4199 490.91 42.6399 489.1 45.5199C487.29 48.3999 484.71 50.6499 481.35 52.2799L492.88 69.0799H476.69L466.99 54.8799H467ZM474.18 29.6099C472.6 28.2399 470.26 27.5499 467.15 27.5499H458.75V43.1999H467.15C470.25 43.1999 472.6 42.5299 474.18 41.1799C475.76 39.8299 476.55 37.9099 476.55 35.4199C476.55 32.9299 475.76 30.9899 474.18 29.6199V29.6099Z" fill="white"/>
</g>
<defs>
<clipPath id="clip0_4443_25052">
<rect width="492.88" height="82.76" fill="white"/>
</clipPath>
</defs>
</svg>
